<svg width="32" height="32" viewBox="0 0 32 32" fill="none" xmlns="http://www.w3.org/2000/svg">
<g clip-path="url(#clip0_21_50)">
<path d="M30.2718 0.0482178L27.6962 28.8015L16.1186 32.0001L4.57291 28.806L2 0.0482178H30.2718Z" fill="#1B9AAA"/>
<path d="M25.4912 26.9706L27.6922 2.39954H16.1359V29.5552L25.4912 26.9706Z" fill="#1B9AAA"/>
<path d="M7.89834 13.0654L8.21556 16.5924H16.1359V13.0654H7.89834Z" fill="#050505"/>
<path d="M16.1359 5.92664H16.1237H7.26094L7.58268 9.4537H16.1359V5.92664Z" fill="#050505"/>
<path d="M16.1359 25.8951V22.2255L16.1204 22.2296L12.1786 21.1689L11.9266 18.356H10.0112H8.3737L8.86956 23.8939L16.1196 25.8996L16.1359 25.8951Z" fill="#050505"/>
<path d="M20.482 16.5924L20.0712 21.1667L16.1237 22.2285V25.8979L23.3795 23.8939L23.4328 23.2981L24.2645 14.0125L24.3508 13.0654L24.9898 5.92664H16.1237V9.4537H21.111L20.7889 13.0654H16.1237V16.5924H20.482Z" fill="#050505"/>
</g>
<defs>
<clipPath id="clip0_21_50">
<rect width="32" height="32" fill="white"/>
</clipPath>
</defs>
</svg>
