<svg xmlns="http://www.w3.org/2000/svg" width="512" height="512" viewBox="0 0 512 512" version="1.1"><path d="" stroke="none" fill="none" fill-rule="evenodd"/><path d="M 296.218 65.663 C 290.726 68.370, 288.500 72.505, 288.500 80 C 288.500 87.458, 290.198 90.555, 296.136 93.932 C 299.666 95.939, 301.149 96.001, 346.636 96.051 L 393.500 96.101 325.782 163.301 C 287.156 201.632, 257.621 231.709, 257.032 233.315 C 253.279 243.551, 259.061 254.394, 268.983 255.725 C 278.877 257.052, 274.603 260.746, 348.221 187.224 L 415.943 119.591 416.221 167.046 C 416.489 212.708, 416.576 214.601, 418.500 217.182 C 425.706 226.846, 441.517 225.860, 446.462 215.439 C 447.799 212.621, 448 203.292, 448 143.937 L 448 75.676 445.534 71.468 C 440.941 63.630, 444.774 63.997, 367.849 64.023 C 306.936 64.043, 299.143 64.222, 296.218 65.663 M 125 96.687 C 119.671 97.570, 109.210 101.324, 102.975 104.591 C 86.022 113.476, 73.411 128.799, 66.836 148.500 L 64.500 155.500 64.500 272 L 64.500 388.500 66.836 395.500 C 73.823 416.437, 86.657 431.367, 105.500 440.479 C 121.829 448.376, 115.112 448, 240 448 C 364.888 448, 358.171 448.376, 374.500 440.479 C 390.156 432.908, 400.888 422.175, 408.475 406.500 C 415.638 391.701, 416 388.693, 416 343.954 C 416 300.680, 415.941 300.234, 409.627 295.730 C 405.169 292.551, 394.831 292.551, 390.373 295.730 C 384.148 300.171, 384.001 301.174, 383.992 339.151 C 383.988 358.043, 383.522 376.425, 382.956 380 C 381.543 388.932, 377.654 396.474, 371.064 403.064 C 364.474 409.654, 356.932 413.543, 348 414.956 C 339.129 416.360, 140.871 416.360, 132 414.956 C 123.068 413.543, 115.526 409.654, 108.936 403.064 C 102.346 396.474, 98.457 388.932, 97.044 380 C 95.626 371.039, 95.641 172.830, 97.060 164 C 98.564 154.643, 102.070 147.768, 108.716 141.140 C 115.521 134.353, 123 130.468, 132 129.044 C 135.575 128.478, 153.957 128.012, 172.849 128.008 C 211.253 127.999, 211.966 127.887, 216.561 121.125 C 219.977 116.098, 219.977 107.902, 216.561 102.875 C 211.878 95.983, 211.884 95.984, 167.349 96.136 C 145.432 96.211, 126.375 96.459, 125 96.687" stroke="none" fill="#1b9aaa" fill-rule="evenodd"/></svg>